<svg xmlns="http://www.w3.org/2000/svg" width="415.638" height="178.213" viewBox="0 0 415.638 178.213">
  <path id="Path_251" data-name="Path 251" d="M2280.213-499.8c-.993-.128-2.022-.259-3.229-.443-.512-.047-1.021-.135-1.637-.237a114.34,114.34,0,0,1-48.763-19.936c-26.948-19.257-38.96-45.682-43.713-59.692l-1.479-4.543-8.708,3.131,1.453,4.383c5.035,15.063,17.854,43.462,47.13,64.38a124.864,124.864,0,0,0,21.369,12.251H1868.564v9.369h375.458a122.563,122.563,0,0,0-22.759,12.863c-29.238,20.89-42.075,49.27-47.128,64.331l-1.451,4.372,8.695,3.133,1.485-4.464c4.738-14.021,16.719-40.422,43.721-59.715a115.345,115.345,0,0,1,50.43-20.237l1.889-.289c.339-.028.677-.071,1.013-.116.261-.034.522-.066.82-.092l3.464-.349v-7.575Z" transform="translate(2284.202 -406.441) rotate(180)" fill="#f5b01c"/>
</svg>
