<svg xmlns="http://www.w3.org/2000/svg" width="24.495" height="17.854" viewBox="0 0 24.495 17.854">
  <path id="Path_282" data-name="Path 282" d="M308.973,420.44c-.1-.011-.2-.023-.345-.044-.032,0-.067-.008-.143-.021a11.85,11.85,0,0,1-4.873-1.884,11.54,11.54,0,0,1-4.366-5.644l-.231-.673-1.364.46.233.665a12.815,12.815,0,0,0,4.906,6.343,13.033,13.033,0,0,0,1.214.728h-18.9v1.4h19a12.911,12.911,0,0,0-6.23,7.128l-.232.659,1.366.471.234-.664a11.5,11.5,0,0,1,4.367-5.647,11.964,11.964,0,0,1,5.043-1.916l.943-.1v-1.179Z" transform="translate(-285.107 -412.174)" fill="#fff"/>
</svg>
