<svg xmlns="http://www.w3.org/2000/svg" width="43" height="43" viewBox="0 0 43 43">
  <g id="Group_2113" data-name="Group 2113" transform="translate(-62 -4010.133)">
    <path id="Path_276" data-name="Path 276" d="M21.5,0A21.5,21.5,0,1,1,0,21.5,21.5,21.5,0,0,1,21.5,0Z" transform="translate(62 4010.133)" fill="#52a3a3"/>
    <path id="Path_213" data-name="Path 213" d="M218.886,140.805c-.4-.318-2.344-1.629-3.655-2.5-.4-.278-.715-.477-.874-.6a1.267,1.267,0,0,0-.675-.238,1.1,1.1,0,0,0-.954.755c-.6,1.112-1.192,1.748-1.47,1.748a50.514,50.514,0,0,1-3.894-3.655,44,44,0,0,1-3.655-3.894v-.08a4.309,4.309,0,0,1,1.748-1.391,1.3,1.3,0,0,0,.715-.755.971.971,0,0,0-.238-.874c-.08-.119-.318-.437-.556-.834-.834-1.232-2.185-3.258-2.5-3.655a1.1,1.1,0,0,0-.834-.517,2.7,2.7,0,0,0-.675.159l-.119.04a4.569,4.569,0,0,0-2.106,1.391c-1.351,1.351-2.384,3.1-.795,6.834,1.43,3.377,5.165,7.112,5.324,7.271s3.933,3.894,7.271,5.324a8.237,8.237,0,0,0,3.3.795,4.63,4.63,0,0,0,3.5-1.589,4.569,4.569,0,0,0,1.391-2.106l.04-.119c.278-.556.437-.953-.278-1.51Zm-.238,1.311-.04.119a5.062,5.062,0,0,1-4.291,3.258,7.78,7.78,0,0,1-3.059-.755c-3.258-1.391-7.032-5.165-7.072-5.2s-3.814-3.814-5.2-7.072c-1.351-3.178-.715-4.728.636-6.118a4.072,4.072,0,0,1,1.867-1.232l.119-.04a1.44,1.44,0,0,1,.437-.119c.04,0,.119,0,.318.238.318.4,1.669,2.424,2.463,3.616.278.4.477.715.556.834s.159.238.119.358a.712.712,0,0,1-.4.358c-.556.278-1.828,1.033-2.066,1.788a.78.78,0,0,0,.04.6,41.6,41.6,0,0,0,3.774,4.013,41.546,41.546,0,0,0,4.013,3.774,1.163,1.163,0,0,0,.357.08c.795,0,1.589-1.311,2.026-2.106.238-.437.4-.477.715-.278.159.08.477.318.874.6,1.192.795,3.218,2.145,3.616,2.463.358.278.358.318.2.835Z" transform="translate(-124.973 3895.37)" fill="#fff"/>
  </g>
</svg>
