<svg xmlns="http://www.w3.org/2000/svg" width="374.288" height="268.999" viewBox="0 0 374.288 268.999">
  <path id="Path_281" data-name="Path 281" d="M464.449,425.682c-8.871-6.482-24.9-20.893-32.549-44.581a89.937,89.937,0,0,1-3.293-39.767c.053-.394.1-.788.2-1.247.109-.755.234-1.483.366-2.245l.45-2.607-4.489-1.367-.825,1.989c-.055.139-.116.274-.176.41l-.184.416c-.06.137-.119.269-.151.355l-.668,1.41a89.146,89.146,0,0,1-25.487,32.185c-19.616,15.4-40.937,18.378-51.9,18.785l-2.944.093.245,5.873,2.923-.092a95.276,95.276,0,0,0,55.31-20.03,92.735,92.735,0,0,0,16.5-16.731c-8.117,28.211-28.8,76.709-79.109,107.641-61.291,37.68-142.846,33.856-207.771-9.741l-.415-.28-2.647,3.937.415.279c35.969,24.154,76.939,36.367,116.932,36.366,33.913,0,67.124-8.786,95.97-26.522,51.034-31.372,72.355-80.3,80.885-109.35a93.114,93.114,0,0,0,4.258,22.05,95.115,95.115,0,0,0,34.714,47.529l2.372,1.711,3.485-4.741Z" transform="translate(-234.319 -154.054) rotate(-20)" fill="#fff"/>
</svg>
