<svg xmlns="http://www.w3.org/2000/svg" width="15.916" height="15.916" viewBox="0 0 15.916 15.916">
  <path id="Path_4" data-name="Path 4" d="M1108.715,507.945h-7.131a4.4,4.4,0,0,0-4.392,4.392v7.132a4.4,4.4,0,0,0,4.392,4.392h7.131a4.4,4.4,0,0,0,4.392-4.392v-7.132a4.4,4.4,0,0,0-4.392-4.392Zm2.98,11.524a2.983,2.983,0,0,1-2.98,2.98h-7.131a2.983,2.983,0,0,1-2.98-2.98v-7.132a2.983,2.983,0,0,1,2.98-2.98h7.131a2.983,2.983,0,0,1,2.98,2.98Zm0,0" transform="translate(-1097.191 -507.945)" fill="#fff"/>
</svg>
