<svg xmlns="http://www.w3.org/2000/svg" width="39" height="39" viewBox="0 0 39 39">
  <g id="Group_2028" data-name="Group 2028" transform="translate(-116 -267)">
    <circle id="Ellipse_224" data-name="Ellipse 224" cx="19.5" cy="19.5" r="19.5" transform="translate(116 267)" fill="#52a3a3"/>
    <g id="Group_1941" data-name="Group 1941" transform="translate(127.576 278.249)">
      <path id="Path_183" data-name="Path 183" d="M2192.142,418.408v6.019h-3.49v-5.616c0-1.411-.5-2.374-1.767-2.374a1.909,1.909,0,0,0-1.791,1.276,2.391,2.391,0,0,0-.116.851v5.862h-3.49s.047-9.512,0-10.5h3.49v1.487c-.007.011-.017.023-.023.034h.023v-.034a3.466,3.466,0,0,1,3.145-1.734c2.3,0,4.019,1.5,4.019,4.724Zm-14.305-9.537a1.819,1.819,0,1,0-.046,3.628h.023a1.819,1.819,0,1,0,.022-3.628Zm-1.767,15.557h3.489v-10.5h-3.489Zm0,0" transform="translate(-2175.861 -408.871)" fill="#fff"/>
    </g>
  </g>
</svg>
