<svg xmlns="http://www.w3.org/2000/svg" width="43" height="43" viewBox="0 0 43 43">
  <g id="Group_2114" data-name="Group 2114" transform="translate(-62 -4074.133)">
    <path id="Path_239" data-name="Path 239" d="M21.5,0A21.5,21.5,0,1,1,0,21.5,21.5,21.5,0,0,1,21.5,0Z" transform="translate(62 4074.133)" fill="#52a3a3"/>
    <path id="noun-email-4521320" d="M129.2,131.816a.468.468,0,0,0-.128.023l-.024.01a.468.468,0,0,0-.1.05.459.459,0,0,0-.037.03.465.465,0,0,0-.042.034l-.016.024a.5.5,0,0,0-.044.064.4.4,0,0,0-.052.135.478.478,0,0,0-.011.068c0,.01,0,.021,0,.032v13.722h0a.471.471,0,0,0,.47.473h20.953a.461.461,0,0,0,.092-.01.471.471,0,0,0,.381-.463V132.286l0-.01h0a.474.474,0,0,0-.02-.125l0-.015a.472.472,0,0,0-.062-.121l0-.007a.491.491,0,0,0-.036-.044l-.035-.027a.387.387,0,0,0-.126-.079.473.473,0,0,0-.064-.023.467.467,0,0,0-.078-.013l-.039-.006H129.2Zm1.2.94h18.586l-9.294,8.785Zm19.3.622v11.495l-4.755-4.755-1.152-1.154Zm-20.01,0,5.907,5.584-5.907,5.91Zm6.593,6.232,3.089,2.92h0a.471.471,0,0,0,.648,0l3.088-2.92,1.17,1.17,4.755,4.756H130.353Z" transform="translate(-56.211 3956.484)" fill="#fff"/>
  </g>
</svg>
