<svg xmlns="http://www.w3.org/2000/svg" width="168" height="39" viewBox="0 0 168 39">
  <g id="Group_2069" data-name="Group 2069" transform="translate(-606 -1551)">
    <text id="Share_this_post" data-name="Share this post" transform="translate(606 1575)" fill="#fff" font-size="16" font-family="RocGrotesk-Regular, Roc Grotesk"><tspan x="0" y="0">Share this post</tspan></text>
    <g id="Group_2068" data-name="Group 2068" transform="translate(5)">
      <circle id="Ellipse_227" data-name="Ellipse 227" cx="19.5" cy="19.5" r="19.5" transform="translate(730 1551)" fill="#fff" opacity="0.245"/>
      <g id="Group_856" data-name="Group 856" transform="translate(739 1560)">
        <path id="Path_75" data-name="Path 75" d="M28.859,960.362a3.476,3.476,0,0,0-3.31,4.5l-4.811,3.287a3.465,3.465,0,1,0,0,5.213l4.818,3.279a3.488,3.488,0,1,0,.433-.889l-4.6-3.14a3.432,3.432,0,0,0-.008-3.712l4.61-3.14a3.463,3.463,0,1,0,2.869-5.4Z" transform="translate(-15 -960.362)" fill="#fff"/>
      </g>
    </g>
  </g>
</svg>
