<svg xmlns="http://www.w3.org/2000/svg" width="201.617" height="165.85" viewBox="0 0 201.617 165.85">
  <g id="Group_1465" data-name="Group 1465" transform="translate(530.924 -73.735) rotate(128)">
    <path id="Path_254" data-name="Path 254" d="M432.2,385.032a51,51,0,0,1-10.569-11.395,52.777,52.777,0,0,1-8.862-31.124l.04-1.032,2.074.059-.04,1.034a50.777,50.777,0,0,0,8.508,29.9,49.713,49.713,0,0,0,17.077,15.588c.257.144.514.287.752.423.226.109.444.238.67.347l.58.289-.552,1.439-.632-.155c-.489-.12-1-.249-1.532-.364-.241-.071-.489-.121-.737-.171a49.924,49.924,0,0,0-22.417.294,50.865,50.865,0,0,0-26.326,16.524l-.669.814-1.582-1.342.662-.795a52.713,52.713,0,0,1,27.419-17.22,51.272,51.272,0,0,1,14.67-1.438" transform="translate(-15.9 -68.953)" fill="#06423f" stroke="#06423f" stroke-width="1"/>
    <g id="Group_1452" data-name="Group 1452" transform="translate(343.905 150.333)">
      <path id="Path_255" data-name="Path 255" d="M389.352,407.765l-2.071-1.758.865-1.038a52.963,52.963,0,0,1,27.588-17.325A51.53,51.53,0,0,1,430.5,386.2l-.031.639a50.99,50.99,0,0,0-14.578,1.429,52.315,52.315,0,0,0-27.249,17.114l-.459.551,1.092.928.463-.563a51.317,51.317,0,0,1,26.5-16.631,50.512,50.512,0,0,1,22.56-.3c.275.056.521.106.761.177.412.088.83.191,1.234.291l.642.157.347-.9-.32-.16c-.113-.054-.226-.115-.341-.176s-.215-.116-.325-.169l-.769-.432a50.267,50.267,0,0,1-17.186-15.688,51.2,51.2,0,0,1-8.562-30.085l.027-.713-1.435-.041-.027.716a52.4,52.4,0,0,0,8.807,30.933,50.727,50.727,0,0,0,10.5,11.324l-.4.5a51.372,51.372,0,0,1-10.635-11.466,53.043,53.043,0,0,1-8.916-31.314l.052-1.35,2.713.077-.052,1.357a50.554,50.554,0,0,0,8.454,29.7,49.634,49.634,0,0,0,16.967,15.488l.755.424c.1.047.214.109.33.171s.213.114.321.166l.843.421-.756,1.973-1.191-.292c-.4-.1-.81-.2-1.239-.292-.245-.071-.474-.118-.7-.164a49.989,49.989,0,0,0-22.307.284,50.671,50.671,0,0,0-26.159,16.42Z" transform="translate(-359.552 -219.101)" fill="#06423f" stroke="#06423f" stroke-width="1"/>
      <path id="Path_256" data-name="Path 256" d="M419.74,319.241l.583-2c-13.144-3.841-45.63-16.441-63.354-50.385-18.579-35.58-13.271-80.817,13.522-115.242l-1.643-1.281c-27.294,35.069-32.681,81.186-13.725,117.487,18.094,34.653,51.215,47.5,64.616,51.421" transform="translate(-343.905 -150.333)" fill="#06423f" stroke="#06423f" stroke-width="1"/>
    </g>
  </g>
</svg>
