<svg xmlns="http://www.w3.org/2000/svg" width="202.857" height="56.057" viewBox="0 0 202.857 56.057">
  <path id="Union_1" data-name="Union 1" d="M9121.046-2448.944v-2.89h202.811v2.89Zm144.318-7.544c-6.136,0-9.814-3.749-9.814-8.854a8.569,8.569,0,0,1,8.972-8.854,8.584,8.584,0,0,1,8.737,8.878v1.219h-12.767c.4,2.53,2.085,3.863,4.919,3.863a7.3,7.3,0,0,0,5.131-1.872l2.6,2.787a11.141,11.141,0,0,1-7.432,2.839C9265.6-2456.482,9265.479-2456.484,9265.364-2456.488Zm-4.731-10.729h7.661a3.8,3.8,0,0,0-3.819-3.185A3.834,3.834,0,0,0,9260.633-2467.217Zm-80.557,10.729c-6.114,0-9.793-3.749-9.793-8.854a8.563,8.563,0,0,1,8.948-8.854h0a8.585,8.585,0,0,1,8.737,8.878v1.219h-12.743c.374,2.53,2.062,3.863,4.918,3.863a7.281,7.281,0,0,0,5.106-1.874l2.6,2.789a11.135,11.135,0,0,1-7.429,2.839C9180.308-2456.482,9180.192-2456.484,9180.076-2456.488Zm-4.708-10.729H9183a3.793,3.793,0,0,0-3.819-3.185A3.793,3.793,0,0,0,9175.368-2467.217Zm71.211,10.729c-6.115,0-9.791-3.749-9.791-8.854a8.561,8.561,0,0,1,8.948-8.854,8.571,8.571,0,0,1,8.737,8.878v1.219H9241.73c.4,2.53,2.085,3.863,4.918,3.863a7.282,7.282,0,0,0,5.106-1.872l2.623,2.787a11.242,11.242,0,0,1-7.469,2.838C9246.8-2456.483,9246.689-2456.484,9246.579-2456.488Zm-4.708-10.729h7.635a3.793,3.793,0,0,0-3.818-3.185A3.792,3.792,0,0,0,9241.871-2467.217Zm55.281,10.495a5.031,5.031,0,0,1-5.295-5.2c0-2.883,2.134-5.225,5.693-5.225a6.544,6.544,0,0,1,3.936,1.172v-.775c0-2.6-1.172-3.3-3.421-3.3a22.82,22.82,0,0,0-4,.515l-.07-3.8a23.141,23.141,0,0,1,4.919-.491c4.825,0,7.214,2.178,7.214,5.833v10.706h-4.264v-1.477a6.124,6.124,0,0,1-4.563,2.04Zm-.54-5.3a2.455,2.455,0,0,0,.667,1.834,2.452,2.452,0,0,0,1.792.768,2.47,2.47,0,0,0,1.776-.779,2.463,2.463,0,0,0,.662-1.823,2.45,2.45,0,0,0-2.447-2.448A2.45,2.45,0,0,0,9296.612-2462.017Zm22.583,4.734v-9.159c0-2.389-1.359-3.281-3.047-3.281a3.1,3.1,0,0,0-3.138,3v9.442h-4.638V-2473.4h4.4v1.968a6.842,6.842,0,0,1,5.293-2.389,5.584,5.584,0,0,1,5.787,5.974v10.565Zm-33.522,0v-9.135c0-2.415-1.334-3.281-3.021-3.281a3.089,3.089,0,0,0-3.138,3.021v9.4h-4.638v-21.9h4.4v7.869a6.8,6.8,0,0,1,5.293-2.483,5.577,5.577,0,0,1,5.786,5.95v10.565Zm-55.727,0v-11.737l.023-.983-6.042,8.714h-.468l-6.3-8.808.023,1.053v11.761h-4.944v-20.943h5.155l6.371,9.065,6.042-9.065h5.085v20.943Zm-29.538,0v-9.159c0-2.389-1.359-3.281-3.044-3.281a3.1,3.1,0,0,0-3.141,3v9.442h-4.638V-2473.4h4.4v1.968a6.84,6.84,0,0,1,5.293-2.389,5.584,5.584,0,0,1,5.786,5.974v10.565Zm-39.424,0-3.138-9.653-3.091,9.653h-4.4l-5.506-16.118h4.849l2.93,10.05,3.138-10.05h4.217l3.138,10.12,2.93-10.12h4.636l-5.387,16.118Zm-26.022-4.31a6.585,6.585,0,0,0,4.13-7.343,6.58,6.58,0,0,0-6.475-5.391,6.582,6.582,0,0,0-6.473,5.391,6.583,6.583,0,0,0,4.133,7.343l-3.491,3.512a11.077,11.077,0,0,1-5.787-9.7,11.3,11.3,0,0,1,11.644-11.127,11.306,11.306,0,0,1,11.595,11.127,11.05,11.05,0,0,1-5.787,9.7Zm93.323-20.943a5.038,5.038,0,0,1-5.319-5.2c0-2.88,2.132-5.223,5.693-5.223a6.481,6.481,0,0,1,3.936,1.147v-.749c0-2.6-1.172-3.3-3.421-3.3a22.643,22.643,0,0,0-3.982.517l-.094-3.8a23.016,23.016,0,0,1,4.921-.494c4.825,0,7.214,2.178,7.214,5.833v10.706h-4.263v-1.477a6.046,6.046,0,0,1-4.526,2.04Zm.149-7.048a2.387,2.387,0,0,0-.688,1.755,2.447,2.447,0,0,0,.655,1.827,2.441,2.441,0,0,0,1.781.772,2.483,2.483,0,0,0,1.785-.774,2.482,2.482,0,0,0,.674-1.825,2.391,2.391,0,0,0-.7-1.762,2.389,2.389,0,0,0-1.762-.7h-.06A2.378,2.378,0,0,0,9228.435-2489.584Zm-53.794,7.048a5.05,5.05,0,0,1-5.316-5.2c0-2.88,2.155-5.223,5.717-5.223a6.55,6.55,0,0,1,3.936,1.147v-.749c0-2.6-1.2-3.3-3.444-3.3a22.835,22.835,0,0,0-3.982.515l-.07-3.793a22.937,22.937,0,0,1,4.9-.494c4.849,0,7.235,2.178,7.235,5.833v10.706h-4.284v-1.477a6.048,6.048,0,0,1-4.529,2.04Zm.161-7.055a2.4,2.4,0,0,0-.7,1.762,2.455,2.455,0,0,0,1.18,2.246,2.449,2.449,0,0,0,2.538,0,2.455,2.455,0,0,0,1.18-2.246,2.385,2.385,0,0,0-.69-1.755,2.376,2.376,0,0,0-1.748-.7h-.076A2.38,2.38,0,0,0,9174.8-2489.591Zm36.055,7.031c-4.474,0-7.871-3.678-7.871-8.5,0-4.848,3.4-8.691,7.871-8.691a7.713,7.713,0,0,1,5.925,2.649v-7.9h4.614v21.9h-4.331v-2.3a7.906,7.906,0,0,1-6.062,2.835Zm-1.731-11.84a4.472,4.472,0,0,0-1.292,3.22,4.526,4.526,0,0,0,1.285,3.248,4.52,4.52,0,0,0,3.213,1.367,4.579,4.579,0,0,0,4.579-4.579,4.579,4.579,0,0,0-4.579-4.579h-.035A4.459,4.459,0,0,0,9209.125-2494.4Zm-12.439,11.3v-9.159c0-2.389-1.359-3.281-3.047-3.281a3.1,3.1,0,0,0-3.138,3v9.439h-4.638v-16.115h4.4v1.968a6.838,6.838,0,0,1,5.293-2.392,5.582,5.582,0,0,1,5.784,5.974v10.565Zm-33.522,0v-9.159c0-2.413-.982-3.281-2.529-3.281-1.334,0-2.646.962-2.646,3.164v9.276h-4.661v-9.159c0-2.413-1.032-3.281-2.556-3.281-1.475,0-2.6,1.125-2.6,3v9.439h-4.661v-16.115h4.45v2.366a5.542,5.542,0,0,1,4.758-2.789,4.959,4.959,0,0,1,4.708,3.07,5.569,5.569,0,0,1,5.012-3.07c3.208,0,5.387,2.272,5.387,5.974v10.565Zm-26.21,0-1.126-3.115h-8.384l-1.126,3.115h-5.2l8.127-20.94h4.944l8.127,20.94Zm-8.082-7.05h5.55l-2.764-7.661Z" transform="translate(-9120.999 2505)" fill="#fff"/>
</svg>
