<svg xmlns="http://www.w3.org/2000/svg" width="951.495" height="343.204" viewBox="0 0 951.495 343.204">
  <path id="Intersection_8" data-name="Intersection 8" d="M12211.387-1964.5q10.594-9.675,20.282-20.281a314.668,314.668,0,0,0,52.6-78.647,313.45,313.45,0,0,0,26.686-89.76,311.484,311.484,0,0,0-1.266-94.7l94.812,25.066V-1964.5Zm-697.158,0q-2.867-5.791-5.593-11.607c-7.135-15.229-13.675-30.9-19.44-46.579-5.7-15.491-10.783-31.378-15.113-47.221-4.283-15.673-7.932-31.69-10.849-47.605-2.893-15.774-5.133-31.834-6.66-47.741-1.52-15.787-2.372-31.806-2.543-47.615-.166-15.718.341-31.608,1.511-47.234,1.162-15.563,3.009-31.243,5.486-46.6h237.736a310.909,310.909,0,0,0-16.4,65.032,310.007,310.007,0,0,0-1.967,67.578,313.5,313.5,0,0,0,13.164,67.905,321.614,321.614,0,0,0,12.477,33.383,331.083,331.083,0,0,0,16.52,32.634,330.915,330.915,0,0,0,52.713,68.865q3.47,3.462,7.038,6.807Z" transform="translate(-11453.506 2307.202)" fill="#fff" stroke="rgba(0,0,0,0)" stroke-width="1" opacity="0.091"/>
</svg>
