<svg xmlns="http://www.w3.org/2000/svg" width="376.447" height="750.436" viewBox="0 0 376.447 750.436">
  <path id="Intersection_5" data-name="Intersection 5" d="M9325.23-9692.446q-12.492-5.09-24.68-11.08l29.633-164.855c73.918,51.723,174.388,52.937,252.917-2.05a233.1,233.1,0,0,0,20.2-15.856v193.842Zm-97.381-307.715v-373q1.4-1,2.811-1.987c112.409-78.71,253.235-86.281,372.637-30.376v186.056c-76.222-68.72-188.853-76.421-275.581-15.7a225.23,225.23,0,0,0-49.79,47.627,220.763,220.763,0,0,0-38.627,189.351Z" transform="translate(-9227.35 10442.382)" fill="#fff" stroke="rgba(0,0,0,0)" stroke-width="1" opacity="0.04"/>
</svg>
