<svg xmlns="http://www.w3.org/2000/svg" width="941.423" height="1002.906" viewBox="0 0 941.423 1002.906">
  <path id="Path_196" data-name="Path 196" d="M433.862,63.677c-236.314,0-419.469,178.929-419.469,400.906,0,149.381,82.724,279.361,208.478,349.388L348.624,687.379c-90.3-33.757-152.769-120.689-152.769-221.958,0-131.674,102.964-237.17,238.008-237.17,133.35,0,236.314,105.5,236.314,237.17,0,102.126-62.448,189.058-152.751,221.958L643.178,813.971c125.753-69.189,208.459-200.007,208.459-349.388,0-221.976-183.994-400.906-417.775-400.906" transform="matrix(0.259, 0.966, -0.966, 0.259, 782.51, -30.383)" fill="#f5b01c"/>
</svg>
