<svg xmlns="http://www.w3.org/2000/svg" width="248.337" height="248.337" viewBox="0 0 248.337 248.337">
  <path id="Path_281" data-name="Path 281" d="M363.382,398.115a61.544,61.544,0,0,1-25.08-59.022c.037-.276.073-.551.141-.873.076-.528.164-1.038.256-1.571l.315-1.824-3.141-.957-.577,1.392c-.039.1-.081.192-.123.287l-.129.291c-.042.1-.083.188-.106.248l-.467.987a62.38,62.38,0,0,1-17.835,22.521,63.23,63.23,0,0,1-36.316,13.145l-2.06.065.171,4.11,2.045-.064a66.669,66.669,0,0,0,38.7-14.016,64.891,64.891,0,0,0,11.546-11.707c-5.68,19.741-20.151,53.677-55.356,75.322-42.888,26.367-99.956,23.691-145.388-6.816l-.29-.2-1.852,2.755.29.2c25.169,16.9,53.838,25.448,81.823,25.447a127.792,127.792,0,0,0,67.155-18.559c35.711-21.953,50.63-56.187,56.6-76.518a65.157,65.157,0,0,0,2.98,15.43,66.557,66.557,0,0,0,24.291,33.258l1.66,1.2,2.439-3.318Z" transform="translate(22.067 574.813) rotate(-135)" fill="#f5b01c"/>
</svg>
