<svg xmlns="http://www.w3.org/2000/svg" width="520.755" height="302.9" viewBox="0 0 520.755 302.9">
  <path id="Path_290" data-name="Path 290" d="M489.1,133.406c-12.89-9.418-36.176-30.358-47.294-64.777a130.679,130.679,0,0,1-4.785-57.782c.077-.572.151-1.145.294-1.812.158-1.1.34-2.155.532-3.262l.654-3.788L431.975,0l-1.2,2.89c-.08.2-.168.4-.256.6l-.267.6c-.087.2-.173.391-.219.516l-.971,2.049A129.53,129.53,0,0,1,392.03,53.42c-28.5,22.37-59.482,26.7-75.408,27.295l-4.278.135.356,8.533,4.247-.134a138.436,138.436,0,0,0,80.366-29.1,134.744,134.744,0,0,0,23.975-24.31c-11.794,40.991-41.844,111.459-114.946,156.4C217.286,246.988,98.786,241.432,4.449,178.085l-.6-.407L0,183.4l.6.405c52.263,35.1,111.793,52.842,169.9,52.84,49.276,0,97.532-12.766,139.445-38.537C384.1,152.524,415.084,81.437,427.478,39.221a135.3,135.3,0,0,0,6.187,32.039,138.2,138.2,0,0,0,50.44,69.06l3.447,2.486,5.064-6.889Z" transform="translate(32.935) rotate(8)" fill="#fff"/>
</svg>
